<!DOCTYPE svg PUBLIC "-//W3C//DTD SVG 20010904//EN" "http://www.w3.org/TR/2001/REC-SVG-20010904/DTD/svg10.dtd">
<svg version="1.0" xmlns="http://www.w3.org/2000/svg" width="182px" height="48px" viewBox="0 0 1820 480" preserveAspectRatio="xMidYMid meet">
<g id="layer101" fill="#ffffff" stroke="none">
 <path d="M106 464 c-9 -8 -16 -24 -16 -33 0 -23 -16 -36 -52 -45 -22 -5 -28 -12 -28 -34 0 -34 16 -52 47 -52 25 0 31 -8 35 -55 3 -26 -1 -31 -32 -41 -64 -21 -67 -63 -5 -88 27 -11 37 -23 41 -46 13 -63 88 -61 82 3 -2 26 -8 33 -30 35 -33 4 -51 24 -46 53 3 23 14 31 63 46 21 6 31 16 33 33 5 34 20 50 46 50 28 0 46 -18 46 -47 0 -15 9 -27 25 -35 22 -10 29 -9 47 10 19 18 20 25 10 47 -8 16 -20 25 -35 25 -29 0 -47 18 -47 46 0 25 15 39 52 48 49 11 44 86 -6 86 -27 0 -41 -14 -50 -52 -12 -50 -73 -47 -83 4 -10 50 -65 74 -97 42z m86 -96 c12 -20 10 -54 -5 -66 -19 -16 -84 4 -92 28 -3 11 -1 29 5 41 10 18 18 20 48 16 19 -4 39 -12 44 -19z"/>
 <path d="M1090 366 c0 -74 4 -116 12 -124 7 -7 33 -12 60 -12 57 0 68 14 68 94 0 65 -16 86 -66 86 -31 0 -34 3 -34 29 0 20 -6 30 -20 34 -19 5 -20 0 -20 -107z m98 -48 c3 -47 3 -48 -27 -48 -30 0 -31 1 -31 51 0 49 1 50 28 47 25 -3 27 -7 30 -50z"/>
 <path d="M1490 366 c0 -121 12 -146 73 -146 58 0 68 15 65 100 -3 75 -3 75 -50 78 -45 3 -47 5 -50 35 -2 21 -9 33 -20 35 -16 3 -18 -7 -18 -102z m98 -54 c3 -53 3 -53 -25 -50 -25 3 -28 8 -31 42 -4 52 3 68 30 64 20 -3 23 -10 26 -56z"/>
 <path d="M1680 356 c0 -127 4 -136 67 -136 54 0 64 17 61 100 -3 75 -3 75 -45 78 -39 3 -42 5 -45 35 -2 21 -9 33 -20 35 -16 3 -18 -7 -18 -112z m90 -41 c0 -52 -1 -55 -25 -55 -24 0 -25 3 -25 55 0 52 1 55 25 55 24 0 25 -3 25 -55z"/>
 <path d="M447 392 c-13 -14 -17 -39 -17 -103 0 -112 7 -121 90 -117 63 3 64 3 74 36 7 26 6 36 -5 43 -21 13 -29 11 -29 -10 0 -26 -24 -43 -57 -39 -28 3 -28 3 -28 83 0 80 0 80 40 80 32 0 40 -4 44 -20 3 -19 18 -35 34 -35 16 0 6 61 -13 80 -27 27 -110 28 -133 2z"/>
 <path d="M656 394 c-19 -19 -22 -134 -4 -152 7 -7 33 -12 60 -12 57 0 68 14 68 94 0 36 -5 60 -16 70 -20 21 -88 21 -108 0z m82 -75 c2 -35 -1 -48 -13 -52 -32 -13 -45 3 -45 55 0 48 1 49 28 46 25 -3 27 -7 30 -49z"/>
 <path d="M810 340 c0 -108 2 -110 120 -110 117 0 120 2 120 103 0 61 -7 77 -36 77 -2 0 -4 -31 -4 -70 0 -70 0 -70 -30 -70 -29 0 -29 0 -32 67 -2 55 -6 68 -20 71 -16 3 -18 -5 -18 -67 0 -73 -7 -86 -40 -76 -16 5 -20 17 -22 73 -2 54 -6 67 -20 70 -16 3 -18 -5 -18 -68z"/>
 <path d="M1270 313 c0 -132 9 -147 82 -151 82 -4 88 5 88 133 0 100 -5 115 -36 115 -2 0 -4 -25 -4 -55 0 -55 0 -55 -44 -55 -45 0 -45 0 -48 52 -2 41 -7 54 -20 56 -16 3 -18 -7 -18 -95z m128 -80 c-3 -24 -8 -29 -37 -31 -35 -4 -51 9 -51 41 0 14 9 17 46 17 44 0 45 -1 42 -27z"/>
 </g>

</svg>